<?xml version="1.0" standalone="yes"?>
<svg xmlns="http://www.w3.org/2000/svg" version="1.1" width="512" height="512">
  <rect x="0" y="0" width="512" height="512" style="fill:#fff;shape-rendering:crispEdges;"/>
  <rect x="62.06060606060606" y="62.06060606060606" width="15.515151515151516" height="15.515151515151516" style="fill:#000;shape-rendering:crispEdges;"/>
  <rect x="77.57575757575758" y="62.06060606060606" width="15.515151515151516" height="15.515151515151516" style="fill:#000;shape-rendering:crispEdges;"/>
  <rect x="93.0909090909091" y="62.06060606060606" width="15.515151515151516" height="15.515151515151516" style="fill:#000;shape-rendering:crispEdges;"/>
  <rect x="108.60606060606061" y="62.06060606060606" width="15.515151515151516" height="15.515151515151516" style="fill:#000;shape-rendering:crispEdges;"/>
  <rect x="124.12121212121212" y="62.06060606060606" width="15.515151515151516" height="15.515151515151516" style="fill:#000;shape-rendering:crispEdges;"/>
  <rect x="139.63636363636363" y="62.06060606060606" width="15.515151515151516" height="15.515151515151516" style="fill:#000;shape-rendering:crispEdges;"/>
  <rect x="155.15151515151516" y="62.06060606060606" width="15.515151515151516" height="15.515151515151516" style="fill:#000;shape-rendering:crispEdges;"/>
  <rect x="186.1818181818182" y="62.06060606060606" width="15.515151515151516" height="15.515151515151516" style="fill:#000;shape-rendering:crispEdges;"/>
  <rect x="248.24242424242425" y="62.06060606060606" width="15.515151515151516" height="15.515151515151516" style="fill:#000;shape-rendering:crispEdges;"/>
  <rect x="263.75757575757575" y="62.06060606060606" width="15.515151515151516" height="15.515151515151516" style="fill:#000;shape-rendering:crispEdges;"/>
  <rect x="279.27272727272725" y="62.06060606060606" width="15.515151515151516" height="15.515151515151516" style="fill:#000;shape-rendering:crispEdges;"/>
  <rect x="294.7878787878788" y="62.06060606060606" width="15.515151515151516" height="15.515151515151516" style="fill:#000;shape-rendering:crispEdges;"/>
  <rect x="310.3030303030303" y="62.06060606060606" width="15.515151515151516" height="15.515151515151516" style="fill:#000;shape-rendering:crispEdges;"/>
  <rect x="341.3333333333333" y="62.06060606060606" width="15.515151515151516" height="15.515151515151516" style="fill:#000;shape-rendering:crispEdges;"/>
  <rect x="356.8484848484849" y="62.06060606060606" width="15.515151515151516" height="15.515151515151516" style="fill:#000;shape-rendering:crispEdges;"/>
  <rect x="372.3636363636364" y="62.06060606060606" width="15.515151515151516" height="15.515151515151516" style="fill:#000;shape-rendering:crispEdges;"/>
  <rect x="387.8787878787879" y="62.06060606060606" width="15.515151515151516" height="15.515151515151516" style="fill:#000;shape-rendering:crispEdges;"/>
  <rect x="403.39393939393943" y="62.06060606060606" width="15.515151515151516" height="15.515151515151516" style="fill:#000;shape-rendering:crispEdges;"/>
  <rect x="418.90909090909093" y="62.06060606060606" width="15.515151515151516" height="15.515151515151516" style="fill:#000;shape-rendering:crispEdges;"/>
  <rect x="434.42424242424244" y="62.06060606060606" width="15.515151515151516" height="15.515151515151516" style="fill:#000;shape-rendering:crispEdges;"/>
  <rect x="62.06060606060606" y="77.57575757575758" width="15.515151515151516" height="15.515151515151516" style="fill:#000;shape-rendering:crispEdges;"/>
  <rect x="155.15151515151516" y="77.57575757575758" width="15.515151515151516" height="15.515151515151516" style="fill:#000;shape-rendering:crispEdges;"/>
  <rect x="201.6969696969697" y="77.57575757575758" width="15.515151515151516" height="15.515151515151516" style="fill:#000;shape-rendering:crispEdges;"/>
  <rect x="217.21212121212122" y="77.57575757575758" width="15.515151515151516" height="15.515151515151516" style="fill:#000;shape-rendering:crispEdges;"/>
  <rect x="263.75757575757575" y="77.57575757575758" width="15.515151515151516" height="15.515151515151516" style="fill:#000;shape-rendering:crispEdges;"/>
  <rect x="279.27272727272725" y="77.57575757575758" width="15.515151515151516" height="15.515151515151516" style="fill:#000;shape-rendering:crispEdges;"/>
  <rect x="341.3333333333333" y="77.57575757575758" width="15.515151515151516" height="15.515151515151516" style="fill:#000;shape-rendering:crispEdges;"/>
  <rect x="434.42424242424244" y="77.57575757575758" width="15.515151515151516" height="15.515151515151516" style="fill:#000;shape-rendering:crispEdges;"/>
  <rect x="62.06060606060606" y="93.0909090909091" width="15.515151515151516" height="15.515151515151516" style="fill:#000;shape-rendering:crispEdges;"/>
  <rect x="93.0909090909091" y="93.0909090909091" width="15.515151515151516" height="15.515151515151516" style="fill:#000;shape-rendering:crispEdges;"/>
  <rect x="108.60606060606061" y="93.0909090909091" width="15.515151515151516" height="15.515151515151516" style="fill:#000;shape-rendering:crispEdges;"/>
  <rect x="124.12121212121212" y="93.0909090909091" width="15.515151515151516" height="15.515151515151516" style="fill:#000;shape-rendering:crispEdges;"/>
  <rect x="155.15151515151516" y="93.0909090909091" width="15.515151515151516" height="15.515151515151516" style="fill:#000;shape-rendering:crispEdges;"/>
  <rect x="232.72727272727275" y="93.0909090909091" width="15.515151515151516" height="15.515151515151516" style="fill:#000;shape-rendering:crispEdges;"/>
  <rect x="248.24242424242425" y="93.0909090909091" width="15.515151515151516" height="15.515151515151516" style="fill:#000;shape-rendering:crispEdges;"/>
  <rect x="294.7878787878788" y="93.0909090909091" width="15.515151515151516" height="15.515151515151516" style="fill:#000;shape-rendering:crispEdges;"/>
  <rect x="341.3333333333333" y="93.0909090909091" width="15.515151515151516" height="15.515151515151516" style="fill:#000;shape-rendering:crispEdges;"/>
  <rect x="372.3636363636364" y="93.0909090909091" width="15.515151515151516" height="15.515151515151516" style="fill:#000;shape-rendering:crispEdges;"/>
  <rect x="387.8787878787879" y="93.0909090909091" width="15.515151515151516" height="15.515151515151516" style="fill:#000;shape-rendering:crispEdges;"/>
  <rect x="403.39393939393943" y="93.0909090909091" width="15.515151515151516" height="15.515151515151516" style="fill:#000;shape-rendering:crispEdges;"/>
  <rect x="434.42424242424244" y="93.0909090909091" width="15.515151515151516" height="15.515151515151516" style="fill:#000;shape-rendering:crispEdges;"/>
  <rect x="62.06060606060606" y="108.60606060606061" width="15.515151515151516" height="15.515151515151516" style="fill:#000;shape-rendering:crispEdges;"/>
  <rect x="93.0909090909091" y="108.60606060606061" width="15.515151515151516" height="15.515151515151516" style="fill:#000;shape-rendering:crispEdges;"/>
  <rect x="108.60606060606061" y="108.60606060606061" width="15.515151515151516" height="15.515151515151516" style="fill:#000;shape-rendering:crispEdges;"/>
  <rect x="124.12121212121212" y="108.60606060606061" width="15.515151515151516" height="15.515151515151516" style="fill:#000;shape-rendering:crispEdges;"/>
  <rect x="155.15151515151516" y="108.60606060606061" width="15.515151515151516" height="15.515151515151516" style="fill:#000;shape-rendering:crispEdges;"/>
  <rect x="186.1818181818182" y="108.60606060606061" width="15.515151515151516" height="15.515151515151516" style="fill:#000;shape-rendering:crispEdges;"/>
  <rect x="201.6969696969697" y="108.60606060606061" width="15.515151515151516" height="15.515151515151516" style="fill:#000;shape-rendering:crispEdges;"/>
  <rect x="217.21212121212122" y="108.60606060606061" width="15.515151515151516" height="15.515151515151516" style="fill:#000;shape-rendering:crispEdges;"/>
  <rect x="232.72727272727275" y="108.60606060606061" width="15.515151515151516" height="15.515151515151516" style="fill:#000;shape-rendering:crispEdges;"/>
  <rect x="248.24242424242425" y="108.60606060606061" width="15.515151515151516" height="15.515151515151516" style="fill:#000;shape-rendering:crispEdges;"/>
  <rect x="263.75757575757575" y="108.60606060606061" width="15.515151515151516" height="15.515151515151516" style="fill:#000;shape-rendering:crispEdges;"/>
  <rect x="341.3333333333333" y="108.60606060606061" width="15.515151515151516" height="15.515151515151516" style="fill:#000;shape-rendering:crispEdges;"/>
  <rect x="372.3636363636364" y="108.60606060606061" width="15.515151515151516" height="15.515151515151516" style="fill:#000;shape-rendering:crispEdges;"/>
  <rect x="387.8787878787879" y="108.60606060606061" width="15.515151515151516" height="15.515151515151516" style="fill:#000;shape-rendering:crispEdges;"/>
  <rect x="403.39393939393943" y="108.60606060606061" width="15.515151515151516" height="15.515151515151516" style="fill:#000;shape-rendering:crispEdges;"/>
  <rect x="434.42424242424244" y="108.60606060606061" width="15.515151515151516" height="15.515151515151516" style="fill:#000;shape-rendering:crispEdges;"/>
  <rect x="62.06060606060606" y="124.12121212121212" width="15.515151515151516" height="15.515151515151516" style="fill:#000;shape-rendering:crispEdges;"/>
  <rect x="93.0909090909091" y="124.12121212121212" width="15.515151515151516" height="15.515151515151516" style="fill:#000;shape-rendering:crispEdges;"/>
  <rect x="108.60606060606061" y="124.12121212121212" width="15.515151515151516" height="15.515151515151516" style="fill:#000;shape-rendering:crispEdges;"/>
  <rect x="124.12121212121212" y="124.12121212121212" width="15.515151515151516" height="15.515151515151516" style="fill:#000;shape-rendering:crispEdges;"/>
  <rect x="155.15151515151516" y="124.12121212121212" width="15.515151515151516" height="15.515151515151516" style="fill:#000;shape-rendering:crispEdges;"/>
  <rect x="186.1818181818182" y="124.12121212121212" width="15.515151515151516" height="15.515151515151516" style="fill:#000;shape-rendering:crispEdges;"/>
  <rect x="201.6969696969697" y="124.12121212121212" width="15.515151515151516" height="15.515151515151516" style="fill:#000;shape-rendering:crispEdges;"/>
  <rect x="263.75757575757575" y="124.12121212121212" width="15.515151515151516" height="15.515151515151516" style="fill:#000;shape-rendering:crispEdges;"/>
  <rect x="294.7878787878788" y="124.12121212121212" width="15.515151515151516" height="15.515151515151516" style="fill:#000;shape-rendering:crispEdges;"/>
  <rect x="310.3030303030303" y="124.12121212121212" width="15.515151515151516" height="15.515151515151516" style="fill:#000;shape-rendering:crispEdges;"/>
  <rect x="341.3333333333333" y="124.12121212121212" width="15.515151515151516" height="15.515151515151516" style="fill:#000;shape-rendering:crispEdges;"/>
  <rect x="372.3636363636364" y="124.12121212121212" width="15.515151515151516" height="15.515151515151516" style="fill:#000;shape-rendering:crispEdges;"/>
  <rect x="387.8787878787879" y="124.12121212121212" width="15.515151515151516" height="15.515151515151516" style="fill:#000;shape-rendering:crispEdges;"/>
  <rect x="403.39393939393943" y="124.12121212121212" width="15.515151515151516" height="15.515151515151516" style="fill:#000;shape-rendering:crispEdges;"/>
  <rect x="434.42424242424244" y="124.12121212121212" width="15.515151515151516" height="15.515151515151516" style="fill:#000;shape-rendering:crispEdges;"/>
  <rect x="62.06060606060606" y="139.63636363636363" width="15.515151515151516" height="15.515151515151516" style="fill:#000;shape-rendering:crispEdges;"/>
  <rect x="155.15151515151516" y="139.63636363636363" width="15.515151515151516" height="15.515151515151516" style="fill:#000;shape-rendering:crispEdges;"/>
  <rect x="186.1818181818182" y="139.63636363636363" width="15.515151515151516" height="15.515151515151516" style="fill:#000;shape-rendering:crispEdges;"/>
  <rect x="217.21212121212122" y="139.63636363636363" width="15.515151515151516" height="15.515151515151516" style="fill:#000;shape-rendering:crispEdges;"/>
  <rect x="263.75757575757575" y="139.63636363636363" width="15.515151515151516" height="15.515151515151516" style="fill:#000;shape-rendering:crispEdges;"/>
  <rect x="279.27272727272725" y="139.63636363636363" width="15.515151515151516" height="15.515151515151516" style="fill:#000;shape-rendering:crispEdges;"/>
  <rect x="294.7878787878788" y="139.63636363636363" width="15.515151515151516" height="15.515151515151516" style="fill:#000;shape-rendering:crispEdges;"/>
  <rect x="341.3333333333333" y="139.63636363636363" width="15.515151515151516" height="15.515151515151516" style="fill:#000;shape-rendering:crispEdges;"/>
  <rect x="434.42424242424244" y="139.63636363636363" width="15.515151515151516" height="15.515151515151516" style="fill:#000;shape-rendering:crispEdges;"/>
  <rect x="62.06060606060606" y="155.15151515151516" width="15.515151515151516" height="15.515151515151516" style="fill:#000;shape-rendering:crispEdges;"/>
  <rect x="77.57575757575758" y="155.15151515151516" width="15.515151515151516" height="15.515151515151516" style="fill:#000;shape-rendering:crispEdges;"/>
  <rect x="93.0909090909091" y="155.15151515151516" width="15.515151515151516" height="15.515151515151516" style="fill:#000;shape-rendering:crispEdges;"/>
  <rect x="108.60606060606061" y="155.15151515151516" width="15.515151515151516" height="15.515151515151516" style="fill:#000;shape-rendering:crispEdges;"/>
  <rect x="124.12121212121212" y="155.15151515151516" width="15.515151515151516" height="15.515151515151516" style="fill:#000;shape-rendering:crispEdges;"/>
  <rect x="139.63636363636363" y="155.15151515151516" width="15.515151515151516" height="15.515151515151516" style="fill:#000;shape-rendering:crispEdges;"/>
  <rect x="155.15151515151516" y="155.15151515151516" width="15.515151515151516" height="15.515151515151516" style="fill:#000;shape-rendering:crispEdges;"/>
  <rect x="186.1818181818182" y="155.15151515151516" width="15.515151515151516" height="15.515151515151516" style="fill:#000;shape-rendering:crispEdges;"/>
  <rect x="217.21212121212122" y="155.15151515151516" width="15.515151515151516" height="15.515151515151516" style="fill:#000;shape-rendering:crispEdges;"/>
  <rect x="248.24242424242425" y="155.15151515151516" width="15.515151515151516" height="15.515151515151516" style="fill:#000;shape-rendering:crispEdges;"/>
  <rect x="279.27272727272725" y="155.15151515151516" width="15.515151515151516" height="15.515151515151516" style="fill:#000;shape-rendering:crispEdges;"/>
  <rect x="310.3030303030303" y="155.15151515151516" width="15.515151515151516" height="15.515151515151516" style="fill:#000;shape-rendering:crispEdges;"/>
  <rect x="341.3333333333333" y="155.15151515151516" width="15.515151515151516" height="15.515151515151516" style="fill:#000;shape-rendering:crispEdges;"/>
  <rect x="356.8484848484849" y="155.15151515151516" width="15.515151515151516" height="15.515151515151516" style="fill:#000;shape-rendering:crispEdges;"/>
  <rect x="372.3636363636364" y="155.15151515151516" width="15.515151515151516" height="15.515151515151516" style="fill:#000;shape-rendering:crispEdges;"/>
  <rect x="387.8787878787879" y="155.15151515151516" width="15.515151515151516" height="15.515151515151516" style="fill:#000;shape-rendering:crispEdges;"/>
  <rect x="403.39393939393943" y="155.15151515151516" width="15.515151515151516" height="15.515151515151516" style="fill:#000;shape-rendering:crispEdges;"/>
  <rect x="418.90909090909093" y="155.15151515151516" width="15.515151515151516" height="15.515151515151516" style="fill:#000;shape-rendering:crispEdges;"/>
  <rect x="434.42424242424244" y="155.15151515151516" width="15.515151515151516" height="15.515151515151516" style="fill:#000;shape-rendering:crispEdges;"/>
  <rect x="186.1818181818182" y="170.66666666666669" width="15.515151515151516" height="15.515151515151516" style="fill:#000;shape-rendering:crispEdges;"/>
  <rect x="201.6969696969697" y="170.66666666666669" width="15.515151515151516" height="15.515151515151516" style="fill:#000;shape-rendering:crispEdges;"/>
  <rect x="248.24242424242425" y="170.66666666666669" width="15.515151515151516" height="15.515151515151516" style="fill:#000;shape-rendering:crispEdges;"/>
  <rect x="279.27272727272725" y="170.66666666666669" width="15.515151515151516" height="15.515151515151516" style="fill:#000;shape-rendering:crispEdges;"/>
  <rect x="294.7878787878788" y="170.66666666666669" width="15.515151515151516" height="15.515151515151516" style="fill:#000;shape-rendering:crispEdges;"/>
  <rect x="62.06060606060606" y="186.1818181818182" width="15.515151515151516" height="15.515151515151516" style="fill:#000;shape-rendering:crispEdges;"/>
  <rect x="77.57575757575758" y="186.1818181818182" width="15.515151515151516" height="15.515151515151516" style="fill:#000;shape-rendering:crispEdges;"/>
  <rect x="93.0909090909091" y="186.1818181818182" width="15.515151515151516" height="15.515151515151516" style="fill:#000;shape-rendering:crispEdges;"/>
  <rect x="124.12121212121212" y="186.1818181818182" width="15.515151515151516" height="15.515151515151516" style="fill:#000;shape-rendering:crispEdges;"/>
  <rect x="155.15151515151516" y="186.1818181818182" width="15.515151515151516" height="15.515151515151516" style="fill:#000;shape-rendering:crispEdges;"/>
  <rect x="186.1818181818182" y="186.1818181818182" width="15.515151515151516" height="15.515151515151516" style="fill:#000;shape-rendering:crispEdges;"/>
  <rect x="201.6969696969697" y="186.1818181818182" width="15.515151515151516" height="15.515151515151516" style="fill:#000;shape-rendering:crispEdges;"/>
  <rect x="232.72727272727275" y="186.1818181818182" width="15.515151515151516" height="15.515151515151516" style="fill:#000;shape-rendering:crispEdges;"/>
  <rect x="263.75757575757575" y="186.1818181818182" width="15.515151515151516" height="15.515151515151516" style="fill:#000;shape-rendering:crispEdges;"/>
  <rect x="279.27272727272725" y="186.1818181818182" width="15.515151515151516" height="15.515151515151516" style="fill:#000;shape-rendering:crispEdges;"/>
  <rect x="294.7878787878788" y="186.1818181818182" width="15.515151515151516" height="15.515151515151516" style="fill:#000;shape-rendering:crispEdges;"/>
  <rect x="325.8181818181818" y="186.1818181818182" width="15.515151515151516" height="15.515151515151516" style="fill:#000;shape-rendering:crispEdges;"/>
  <rect x="341.3333333333333" y="186.1818181818182" width="15.515151515151516" height="15.515151515151516" style="fill:#000;shape-rendering:crispEdges;"/>
  <rect x="356.8484848484849" y="186.1818181818182" width="15.515151515151516" height="15.515151515151516" style="fill:#000;shape-rendering:crispEdges;"/>
  <rect x="372.3636363636364" y="186.1818181818182" width="15.515151515151516" height="15.515151515151516" style="fill:#000;shape-rendering:crispEdges;"/>
  <rect x="387.8787878787879" y="186.1818181818182" width="15.515151515151516" height="15.515151515151516" style="fill:#000;shape-rendering:crispEdges;"/>
  <rect x="434.42424242424244" y="186.1818181818182" width="15.515151515151516" height="15.515151515151516" style="fill:#000;shape-rendering:crispEdges;"/>
  <rect x="93.0909090909091" y="201.6969696969697" width="15.515151515151516" height="15.515151515151516" style="fill:#000;shape-rendering:crispEdges;"/>
  <rect x="108.60606060606061" y="201.6969696969697" width="15.515151515151516" height="15.515151515151516" style="fill:#000;shape-rendering:crispEdges;"/>
  <rect x="217.21212121212122" y="201.6969696969697" width="15.515151515151516" height="15.515151515151516" style="fill:#000;shape-rendering:crispEdges;"/>
  <rect x="263.75757575757575" y="201.6969696969697" width="15.515151515151516" height="15.515151515151516" style="fill:#000;shape-rendering:crispEdges;"/>
  <rect x="279.27272727272725" y="201.6969696969697" width="15.515151515151516" height="15.515151515151516" style="fill:#000;shape-rendering:crispEdges;"/>
  <rect x="294.7878787878788" y="201.6969696969697" width="15.515151515151516" height="15.515151515151516" style="fill:#000;shape-rendering:crispEdges;"/>
  <rect x="310.3030303030303" y="201.6969696969697" width="15.515151515151516" height="15.515151515151516" style="fill:#000;shape-rendering:crispEdges;"/>
  <rect x="356.8484848484849" y="201.6969696969697" width="15.515151515151516" height="15.515151515151516" style="fill:#000;shape-rendering:crispEdges;"/>
  <rect x="387.8787878787879" y="201.6969696969697" width="15.515151515151516" height="15.515151515151516" style="fill:#000;shape-rendering:crispEdges;"/>
  <rect x="403.39393939393943" y="201.6969696969697" width="15.515151515151516" height="15.515151515151516" style="fill:#000;shape-rendering:crispEdges;"/>
  <rect x="418.90909090909093" y="201.6969696969697" width="15.515151515151516" height="15.515151515151516" style="fill:#000;shape-rendering:crispEdges;"/>
  <rect x="434.42424242424244" y="201.6969696969697" width="15.515151515151516" height="15.515151515151516" style="fill:#000;shape-rendering:crispEdges;"/>
  <rect x="62.06060606060606" y="217.21212121212122" width="15.515151515151516" height="15.515151515151516" style="fill:#000;shape-rendering:crispEdges;"/>
  <rect x="77.57575757575758" y="217.21212121212122" width="15.515151515151516" height="15.515151515151516" style="fill:#000;shape-rendering:crispEdges;"/>
  <rect x="93.0909090909091" y="217.21212121212122" width="15.515151515151516" height="15.515151515151516" style="fill:#000;shape-rendering:crispEdges;"/>
  <rect x="155.15151515151516" y="217.21212121212122" width="15.515151515151516" height="15.515151515151516" style="fill:#000;shape-rendering:crispEdges;"/>
  <rect x="170.66666666666669" y="217.21212121212122" width="15.515151515151516" height="15.515151515151516" style="fill:#000;shape-rendering:crispEdges;"/>
  <rect x="186.1818181818182" y="217.21212121212122" width="15.515151515151516" height="15.515151515151516" style="fill:#000;shape-rendering:crispEdges;"/>
  <rect x="217.21212121212122" y="217.21212121212122" width="15.515151515151516" height="15.515151515151516" style="fill:#000;shape-rendering:crispEdges;"/>
  <rect x="263.75757575757575" y="217.21212121212122" width="15.515151515151516" height="15.515151515151516" style="fill:#000;shape-rendering:crispEdges;"/>
  <rect x="310.3030303030303" y="217.21212121212122" width="15.515151515151516" height="15.515151515151516" style="fill:#000;shape-rendering:crispEdges;"/>
  <rect x="341.3333333333333" y="217.21212121212122" width="15.515151515151516" height="15.515151515151516" style="fill:#000;shape-rendering:crispEdges;"/>
  <rect x="372.3636363636364" y="217.21212121212122" width="15.515151515151516" height="15.515151515151516" style="fill:#000;shape-rendering:crispEdges;"/>
  <rect x="418.90909090909093" y="217.21212121212122" width="15.515151515151516" height="15.515151515151516" style="fill:#000;shape-rendering:crispEdges;"/>
  <rect x="77.57575757575758" y="232.72727272727275" width="15.515151515151516" height="15.515151515151516" style="fill:#000;shape-rendering:crispEdges;"/>
  <rect x="93.0909090909091" y="232.72727272727275" width="15.515151515151516" height="15.515151515151516" style="fill:#000;shape-rendering:crispEdges;"/>
  <rect x="108.60606060606061" y="232.72727272727275" width="15.515151515151516" height="15.515151515151516" style="fill:#000;shape-rendering:crispEdges;"/>
  <rect x="170.66666666666669" y="232.72727272727275" width="15.515151515151516" height="15.515151515151516" style="fill:#000;shape-rendering:crispEdges;"/>
  <rect x="217.21212121212122" y="232.72727272727275" width="15.515151515151516" height="15.515151515151516" style="fill:#000;shape-rendering:crispEdges;"/>
  <rect x="248.24242424242425" y="232.72727272727275" width="15.515151515151516" height="15.515151515151516" style="fill:#000;shape-rendering:crispEdges;"/>
  <rect x="310.3030303030303" y="232.72727272727275" width="15.515151515151516" height="15.515151515151516" style="fill:#000;shape-rendering:crispEdges;"/>
  <rect x="325.8181818181818" y="232.72727272727275" width="15.515151515151516" height="15.515151515151516" style="fill:#000;shape-rendering:crispEdges;"/>
  <rect x="356.8484848484849" y="232.72727272727275" width="15.515151515151516" height="15.515151515151516" style="fill:#000;shape-rendering:crispEdges;"/>
  <rect x="372.3636363636364" y="232.72727272727275" width="15.515151515151516" height="15.515151515151516" style="fill:#000;shape-rendering:crispEdges;"/>
  <rect x="403.39393939393943" y="232.72727272727275" width="15.515151515151516" height="15.515151515151516" style="fill:#000;shape-rendering:crispEdges;"/>
  <rect x="418.90909090909093" y="232.72727272727275" width="15.515151515151516" height="15.515151515151516" style="fill:#000;shape-rendering:crispEdges;"/>
  <rect x="434.42424242424244" y="232.72727272727275" width="15.515151515151516" height="15.515151515151516" style="fill:#000;shape-rendering:crispEdges;"/>
  <rect x="62.06060606060606" y="248.24242424242425" width="15.515151515151516" height="15.515151515151516" style="fill:#000;shape-rendering:crispEdges;"/>
  <rect x="108.60606060606061" y="248.24242424242425" width="15.515151515151516" height="15.515151515151516" style="fill:#000;shape-rendering:crispEdges;"/>
  <rect x="124.12121212121212" y="248.24242424242425" width="15.515151515151516" height="15.515151515151516" style="fill:#000;shape-rendering:crispEdges;"/>
  <rect x="155.15151515151516" y="248.24242424242425" width="15.515151515151516" height="15.515151515151516" style="fill:#000;shape-rendering:crispEdges;"/>
  <rect x="232.72727272727275" y="248.24242424242425" width="15.515151515151516" height="15.515151515151516" style="fill:#000;shape-rendering:crispEdges;"/>
  <rect x="263.75757575757575" y="248.24242424242425" width="15.515151515151516" height="15.515151515151516" style="fill:#000;shape-rendering:crispEdges;"/>
  <rect x="294.7878787878788" y="248.24242424242425" width="15.515151515151516" height="15.515151515151516" style="fill:#000;shape-rendering:crispEdges;"/>
  <rect x="310.3030303030303" y="248.24242424242425" width="15.515151515151516" height="15.515151515151516" style="fill:#000;shape-rendering:crispEdges;"/>
  <rect x="341.3333333333333" y="248.24242424242425" width="15.515151515151516" height="15.515151515151516" style="fill:#000;shape-rendering:crispEdges;"/>
  <rect x="387.8787878787879" y="248.24242424242425" width="15.515151515151516" height="15.515151515151516" style="fill:#000;shape-rendering:crispEdges;"/>
  <rect x="418.90909090909093" y="248.24242424242425" width="15.515151515151516" height="15.515151515151516" style="fill:#000;shape-rendering:crispEdges;"/>
  <rect x="434.42424242424244" y="248.24242424242425" width="15.515151515151516" height="15.515151515151516" style="fill:#000;shape-rendering:crispEdges;"/>
  <rect x="77.57575757575758" y="263.75757575757575" width="15.515151515151516" height="15.515151515151516" style="fill:#000;shape-rendering:crispEdges;"/>
  <rect x="93.0909090909091" y="263.75757575757575" width="15.515151515151516" height="15.515151515151516" style="fill:#000;shape-rendering:crispEdges;"/>
  <rect x="124.12121212121212" y="263.75757575757575" width="15.515151515151516" height="15.515151515151516" style="fill:#000;shape-rendering:crispEdges;"/>
  <rect x="139.63636363636363" y="263.75757575757575" width="15.515151515151516" height="15.515151515151516" style="fill:#000;shape-rendering:crispEdges;"/>
  <rect x="186.1818181818182" y="263.75757575757575" width="15.515151515151516" height="15.515151515151516" style="fill:#000;shape-rendering:crispEdges;"/>
  <rect x="248.24242424242425" y="263.75757575757575" width="15.515151515151516" height="15.515151515151516" style="fill:#000;shape-rendering:crispEdges;"/>
  <rect x="294.7878787878788" y="263.75757575757575" width="15.515151515151516" height="15.515151515151516" style="fill:#000;shape-rendering:crispEdges;"/>
  <rect x="341.3333333333333" y="263.75757575757575" width="15.515151515151516" height="15.515151515151516" style="fill:#000;shape-rendering:crispEdges;"/>
  <rect x="356.8484848484849" y="263.75757575757575" width="15.515151515151516" height="15.515151515151516" style="fill:#000;shape-rendering:crispEdges;"/>
  <rect x="372.3636363636364" y="263.75757575757575" width="15.515151515151516" height="15.515151515151516" style="fill:#000;shape-rendering:crispEdges;"/>
  <rect x="387.8787878787879" y="263.75757575757575" width="15.515151515151516" height="15.515151515151516" style="fill:#000;shape-rendering:crispEdges;"/>
  <rect x="403.39393939393943" y="263.75757575757575" width="15.515151515151516" height="15.515151515151516" style="fill:#000;shape-rendering:crispEdges;"/>
  <rect x="418.90909090909093" y="263.75757575757575" width="15.515151515151516" height="15.515151515151516" style="fill:#000;shape-rendering:crispEdges;"/>
  <rect x="434.42424242424244" y="263.75757575757575" width="15.515151515151516" height="15.515151515151516" style="fill:#000;shape-rendering:crispEdges;"/>
  <rect x="62.06060606060606" y="279.27272727272725" width="15.515151515151516" height="15.515151515151516" style="fill:#000;shape-rendering:crispEdges;"/>
  <rect x="93.0909090909091" y="279.27272727272725" width="15.515151515151516" height="15.515151515151516" style="fill:#000;shape-rendering:crispEdges;"/>
  <rect x="108.60606060606061" y="279.27272727272725" width="15.515151515151516" height="15.515151515151516" style="fill:#000;shape-rendering:crispEdges;"/>
  <rect x="124.12121212121212" y="279.27272727272725" width="15.515151515151516" height="15.515151515151516" style="fill:#000;shape-rendering:crispEdges;"/>
  <rect x="139.63636363636363" y="279.27272727272725" width="15.515151515151516" height="15.515151515151516" style="fill:#000;shape-rendering:crispEdges;"/>
  <rect x="155.15151515151516" y="279.27272727272725" width="15.515151515151516" height="15.515151515151516" style="fill:#000;shape-rendering:crispEdges;"/>
  <rect x="170.66666666666669" y="279.27272727272725" width="15.515151515151516" height="15.515151515151516" style="fill:#000;shape-rendering:crispEdges;"/>
  <rect x="186.1818181818182" y="279.27272727272725" width="15.515151515151516" height="15.515151515151516" style="fill:#000;shape-rendering:crispEdges;"/>
  <rect x="201.6969696969697" y="279.27272727272725" width="15.515151515151516" height="15.515151515151516" style="fill:#000;shape-rendering:crispEdges;"/>
  <rect x="217.21212121212122" y="279.27272727272725" width="15.515151515151516" height="15.515151515151516" style="fill:#000;shape-rendering:crispEdges;"/>
  <rect x="232.72727272727275" y="279.27272727272725" width="15.515151515151516" height="15.515151515151516" style="fill:#000;shape-rendering:crispEdges;"/>
  <rect x="248.24242424242425" y="279.27272727272725" width="15.515151515151516" height="15.515151515151516" style="fill:#000;shape-rendering:crispEdges;"/>
  <rect x="279.27272727272725" y="279.27272727272725" width="15.515151515151516" height="15.515151515151516" style="fill:#000;shape-rendering:crispEdges;"/>
  <rect x="294.7878787878788" y="279.27272727272725" width="15.515151515151516" height="15.515151515151516" style="fill:#000;shape-rendering:crispEdges;"/>
  <rect x="341.3333333333333" y="279.27272727272725" width="15.515151515151516" height="15.515151515151516" style="fill:#000;shape-rendering:crispEdges;"/>
  <rect x="108.60606060606061" y="294.7878787878788" width="15.515151515151516" height="15.515151515151516" style="fill:#000;shape-rendering:crispEdges;"/>
  <rect x="170.66666666666669" y="294.7878787878788" width="15.515151515151516" height="15.515151515151516" style="fill:#000;shape-rendering:crispEdges;"/>
  <rect x="186.1818181818182" y="294.7878787878788" width="15.515151515151516" height="15.515151515151516" style="fill:#000;shape-rendering:crispEdges;"/>
  <rect x="201.6969696969697" y="294.7878787878788" width="15.515151515151516" height="15.515151515151516" style="fill:#000;shape-rendering:crispEdges;"/>
  <rect x="217.21212121212122" y="294.7878787878788" width="15.515151515151516" height="15.515151515151516" style="fill:#000;shape-rendering:crispEdges;"/>
  <rect x="232.72727272727275" y="294.7878787878788" width="15.515151515151516" height="15.515151515151516" style="fill:#000;shape-rendering:crispEdges;"/>
  <rect x="263.75757575757575" y="294.7878787878788" width="15.515151515151516" height="15.515151515151516" style="fill:#000;shape-rendering:crispEdges;"/>
  <rect x="279.27272727272725" y="294.7878787878788" width="15.515151515151516" height="15.515151515151516" style="fill:#000;shape-rendering:crispEdges;"/>
  <rect x="310.3030303030303" y="294.7878787878788" width="15.515151515151516" height="15.515151515151516" style="fill:#000;shape-rendering:crispEdges;"/>
  <rect x="356.8484848484849" y="294.7878787878788" width="15.515151515151516" height="15.515151515151516" style="fill:#000;shape-rendering:crispEdges;"/>
  <rect x="372.3636363636364" y="294.7878787878788" width="15.515151515151516" height="15.515151515151516" style="fill:#000;shape-rendering:crispEdges;"/>
  <rect x="77.57575757575758" y="310.3030303030303" width="15.515151515151516" height="15.515151515151516" style="fill:#000;shape-rendering:crispEdges;"/>
  <rect x="108.60606060606061" y="310.3030303030303" width="15.515151515151516" height="15.515151515151516" style="fill:#000;shape-rendering:crispEdges;"/>
  <rect x="124.12121212121212" y="310.3030303030303" width="15.515151515151516" height="15.515151515151516" style="fill:#000;shape-rendering:crispEdges;"/>
  <rect x="155.15151515151516" y="310.3030303030303" width="15.515151515151516" height="15.515151515151516" style="fill:#000;shape-rendering:crispEdges;"/>
  <rect x="186.1818181818182" y="310.3030303030303" width="15.515151515151516" height="15.515151515151516" style="fill:#000;shape-rendering:crispEdges;"/>
  <rect x="248.24242424242425" y="310.3030303030303" width="15.515151515151516" height="15.515151515151516" style="fill:#000;shape-rendering:crispEdges;"/>
  <rect x="310.3030303030303" y="310.3030303030303" width="15.515151515151516" height="15.515151515151516" style="fill:#000;shape-rendering:crispEdges;"/>
  <rect x="325.8181818181818" y="310.3030303030303" width="15.515151515151516" height="15.515151515151516" style="fill:#000;shape-rendering:crispEdges;"/>
  <rect x="341.3333333333333" y="310.3030303030303" width="15.515151515151516" height="15.515151515151516" style="fill:#000;shape-rendering:crispEdges;"/>
  <rect x="356.8484848484849" y="310.3030303030303" width="15.515151515151516" height="15.515151515151516" style="fill:#000;shape-rendering:crispEdges;"/>
  <rect x="372.3636363636364" y="310.3030303030303" width="15.515151515151516" height="15.515151515151516" style="fill:#000;shape-rendering:crispEdges;"/>
  <rect x="387.8787878787879" y="310.3030303030303" width="15.515151515151516" height="15.515151515151516" style="fill:#000;shape-rendering:crispEdges;"/>
  <rect x="403.39393939393943" y="310.3030303030303" width="15.515151515151516" height="15.515151515151516" style="fill:#000;shape-rendering:crispEdges;"/>
  <rect x="434.42424242424244" y="310.3030303030303" width="15.515151515151516" height="15.515151515151516" style="fill:#000;shape-rendering:crispEdges;"/>
  <rect x="186.1818181818182" y="325.8181818181818" width="15.515151515151516" height="15.515151515151516" style="fill:#000;shape-rendering:crispEdges;"/>
  <rect x="279.27272727272725" y="325.8181818181818" width="15.515151515151516" height="15.515151515151516" style="fill:#000;shape-rendering:crispEdges;"/>
  <rect x="294.7878787878788" y="325.8181818181818" width="15.515151515151516" height="15.515151515151516" style="fill:#000;shape-rendering:crispEdges;"/>
  <rect x="310.3030303030303" y="325.8181818181818" width="15.515151515151516" height="15.515151515151516" style="fill:#000;shape-rendering:crispEdges;"/>
  <rect x="372.3636363636364" y="325.8181818181818" width="15.515151515151516" height="15.515151515151516" style="fill:#000;shape-rendering:crispEdges;"/>
  <rect x="387.8787878787879" y="325.8181818181818" width="15.515151515151516" height="15.515151515151516" style="fill:#000;shape-rendering:crispEdges;"/>
  <rect x="403.39393939393943" y="325.8181818181818" width="15.515151515151516" height="15.515151515151516" style="fill:#000;shape-rendering:crispEdges;"/>
  <rect x="62.06060606060606" y="341.3333333333333" width="15.515151515151516" height="15.515151515151516" style="fill:#000;shape-rendering:crispEdges;"/>
  <rect x="77.57575757575758" y="341.3333333333333" width="15.515151515151516" height="15.515151515151516" style="fill:#000;shape-rendering:crispEdges;"/>
  <rect x="93.0909090909091" y="341.3333333333333" width="15.515151515151516" height="15.515151515151516" style="fill:#000;shape-rendering:crispEdges;"/>
  <rect x="108.60606060606061" y="341.3333333333333" width="15.515151515151516" height="15.515151515151516" style="fill:#000;shape-rendering:crispEdges;"/>
  <rect x="124.12121212121212" y="341.3333333333333" width="15.515151515151516" height="15.515151515151516" style="fill:#000;shape-rendering:crispEdges;"/>
  <rect x="139.63636363636363" y="341.3333333333333" width="15.515151515151516" height="15.515151515151516" style="fill:#000;shape-rendering:crispEdges;"/>
  <rect x="155.15151515151516" y="341.3333333333333" width="15.515151515151516" height="15.515151515151516" style="fill:#000;shape-rendering:crispEdges;"/>
  <rect x="248.24242424242425" y="341.3333333333333" width="15.515151515151516" height="15.515151515151516" style="fill:#000;shape-rendering:crispEdges;"/>
  <rect x="310.3030303030303" y="341.3333333333333" width="15.515151515151516" height="15.515151515151516" style="fill:#000;shape-rendering:crispEdges;"/>
  <rect x="341.3333333333333" y="341.3333333333333" width="15.515151515151516" height="15.515151515151516" style="fill:#000;shape-rendering:crispEdges;"/>
  <rect x="372.3636363636364" y="341.3333333333333" width="15.515151515151516" height="15.515151515151516" style="fill:#000;shape-rendering:crispEdges;"/>
  <rect x="387.8787878787879" y="341.3333333333333" width="15.515151515151516" height="15.515151515151516" style="fill:#000;shape-rendering:crispEdges;"/>
  <rect x="418.90909090909093" y="341.3333333333333" width="15.515151515151516" height="15.515151515151516" style="fill:#000;shape-rendering:crispEdges;"/>
  <rect x="62.06060606060606" y="356.8484848484849" width="15.515151515151516" height="15.515151515151516" style="fill:#000;shape-rendering:crispEdges;"/>
  <rect x="155.15151515151516" y="356.8484848484849" width="15.515151515151516" height="15.515151515151516" style="fill:#000;shape-rendering:crispEdges;"/>
  <rect x="201.6969696969697" y="356.8484848484849" width="15.515151515151516" height="15.515151515151516" style="fill:#000;shape-rendering:crispEdges;"/>
  <rect x="217.21212121212122" y="356.8484848484849" width="15.515151515151516" height="15.515151515151516" style="fill:#000;shape-rendering:crispEdges;"/>
  <rect x="232.72727272727275" y="356.8484848484849" width="15.515151515151516" height="15.515151515151516" style="fill:#000;shape-rendering:crispEdges;"/>
  <rect x="248.24242424242425" y="356.8484848484849" width="15.515151515151516" height="15.515151515151516" style="fill:#000;shape-rendering:crispEdges;"/>
  <rect x="294.7878787878788" y="356.8484848484849" width="15.515151515151516" height="15.515151515151516" style="fill:#000;shape-rendering:crispEdges;"/>
  <rect x="310.3030303030303" y="356.8484848484849" width="15.515151515151516" height="15.515151515151516" style="fill:#000;shape-rendering:crispEdges;"/>
  <rect x="372.3636363636364" y="356.8484848484849" width="15.515151515151516" height="15.515151515151516" style="fill:#000;shape-rendering:crispEdges;"/>
  <rect x="418.90909090909093" y="356.8484848484849" width="15.515151515151516" height="15.515151515151516" style="fill:#000;shape-rendering:crispEdges;"/>
  <rect x="62.06060606060606" y="372.3636363636364" width="15.515151515151516" height="15.515151515151516" style="fill:#000;shape-rendering:crispEdges;"/>
  <rect x="93.0909090909091" y="372.3636363636364" width="15.515151515151516" height="15.515151515151516" style="fill:#000;shape-rendering:crispEdges;"/>
  <rect x="108.60606060606061" y="372.3636363636364" width="15.515151515151516" height="15.515151515151516" style="fill:#000;shape-rendering:crispEdges;"/>
  <rect x="124.12121212121212" y="372.3636363636364" width="15.515151515151516" height="15.515151515151516" style="fill:#000;shape-rendering:crispEdges;"/>
  <rect x="155.15151515151516" y="372.3636363636364" width="15.515151515151516" height="15.515151515151516" style="fill:#000;shape-rendering:crispEdges;"/>
  <rect x="186.1818181818182" y="372.3636363636364" width="15.515151515151516" height="15.515151515151516" style="fill:#000;shape-rendering:crispEdges;"/>
  <rect x="201.6969696969697" y="372.3636363636364" width="15.515151515151516" height="15.515151515151516" style="fill:#000;shape-rendering:crispEdges;"/>
  <rect x="263.75757575757575" y="372.3636363636364" width="15.515151515151516" height="15.515151515151516" style="fill:#000;shape-rendering:crispEdges;"/>
  <rect x="279.27272727272725" y="372.3636363636364" width="15.515151515151516" height="15.515151515151516" style="fill:#000;shape-rendering:crispEdges;"/>
  <rect x="310.3030303030303" y="372.3636363636364" width="15.515151515151516" height="15.515151515151516" style="fill:#000;shape-rendering:crispEdges;"/>
  <rect x="325.8181818181818" y="372.3636363636364" width="15.515151515151516" height="15.515151515151516" style="fill:#000;shape-rendering:crispEdges;"/>
  <rect x="341.3333333333333" y="372.3636363636364" width="15.515151515151516" height="15.515151515151516" style="fill:#000;shape-rendering:crispEdges;"/>
  <rect x="356.8484848484849" y="372.3636363636364" width="15.515151515151516" height="15.515151515151516" style="fill:#000;shape-rendering:crispEdges;"/>
  <rect x="372.3636363636364" y="372.3636363636364" width="15.515151515151516" height="15.515151515151516" style="fill:#000;shape-rendering:crispEdges;"/>
  <rect x="403.39393939393943" y="372.3636363636364" width="15.515151515151516" height="15.515151515151516" style="fill:#000;shape-rendering:crispEdges;"/>
  <rect x="418.90909090909093" y="372.3636363636364" width="15.515151515151516" height="15.515151515151516" style="fill:#000;shape-rendering:crispEdges;"/>
  <rect x="62.06060606060606" y="387.8787878787879" width="15.515151515151516" height="15.515151515151516" style="fill:#000;shape-rendering:crispEdges;"/>
  <rect x="93.0909090909091" y="387.8787878787879" width="15.515151515151516" height="15.515151515151516" style="fill:#000;shape-rendering:crispEdges;"/>
  <rect x="108.60606060606061" y="387.8787878787879" width="15.515151515151516" height="15.515151515151516" style="fill:#000;shape-rendering:crispEdges;"/>
  <rect x="124.12121212121212" y="387.8787878787879" width="15.515151515151516" height="15.515151515151516" style="fill:#000;shape-rendering:crispEdges;"/>
  <rect x="155.15151515151516" y="387.8787878787879" width="15.515151515151516" height="15.515151515151516" style="fill:#000;shape-rendering:crispEdges;"/>
  <rect x="201.6969696969697" y="387.8787878787879" width="15.515151515151516" height="15.515151515151516" style="fill:#000;shape-rendering:crispEdges;"/>
  <rect x="217.21212121212122" y="387.8787878787879" width="15.515151515151516" height="15.515151515151516" style="fill:#000;shape-rendering:crispEdges;"/>
  <rect x="232.72727272727275" y="387.8787878787879" width="15.515151515151516" height="15.515151515151516" style="fill:#000;shape-rendering:crispEdges;"/>
  <rect x="279.27272727272725" y="387.8787878787879" width="15.515151515151516" height="15.515151515151516" style="fill:#000;shape-rendering:crispEdges;"/>
  <rect x="294.7878787878788" y="387.8787878787879" width="15.515151515151516" height="15.515151515151516" style="fill:#000;shape-rendering:crispEdges;"/>
  <rect x="403.39393939393943" y="387.8787878787879" width="15.515151515151516" height="15.515151515151516" style="fill:#000;shape-rendering:crispEdges;"/>
  <rect x="434.42424242424244" y="387.8787878787879" width="15.515151515151516" height="15.515151515151516" style="fill:#000;shape-rendering:crispEdges;"/>
  <rect x="62.06060606060606" y="403.39393939393943" width="15.515151515151516" height="15.515151515151516" style="fill:#000;shape-rendering:crispEdges;"/>
  <rect x="93.0909090909091" y="403.39393939393943" width="15.515151515151516" height="15.515151515151516" style="fill:#000;shape-rendering:crispEdges;"/>
  <rect x="108.60606060606061" y="403.39393939393943" width="15.515151515151516" height="15.515151515151516" style="fill:#000;shape-rendering:crispEdges;"/>
  <rect x="124.12121212121212" y="403.39393939393943" width="15.515151515151516" height="15.515151515151516" style="fill:#000;shape-rendering:crispEdges;"/>
  <rect x="155.15151515151516" y="403.39393939393943" width="15.515151515151516" height="15.515151515151516" style="fill:#000;shape-rendering:crispEdges;"/>
  <rect x="186.1818181818182" y="403.39393939393943" width="15.515151515151516" height="15.515151515151516" style="fill:#000;shape-rendering:crispEdges;"/>
  <rect x="201.6969696969697" y="403.39393939393943" width="15.515151515151516" height="15.515151515151516" style="fill:#000;shape-rendering:crispEdges;"/>
  <rect x="232.72727272727275" y="403.39393939393943" width="15.515151515151516" height="15.515151515151516" style="fill:#000;shape-rendering:crispEdges;"/>
  <rect x="279.27272727272725" y="403.39393939393943" width="15.515151515151516" height="15.515151515151516" style="fill:#000;shape-rendering:crispEdges;"/>
  <rect x="294.7878787878788" y="403.39393939393943" width="15.515151515151516" height="15.515151515151516" style="fill:#000;shape-rendering:crispEdges;"/>
  <rect x="310.3030303030303" y="403.39393939393943" width="15.515151515151516" height="15.515151515151516" style="fill:#000;shape-rendering:crispEdges;"/>
  <rect x="325.8181818181818" y="403.39393939393943" width="15.515151515151516" height="15.515151515151516" style="fill:#000;shape-rendering:crispEdges;"/>
  <rect x="403.39393939393943" y="403.39393939393943" width="15.515151515151516" height="15.515151515151516" style="fill:#000;shape-rendering:crispEdges;"/>
  <rect x="418.90909090909093" y="403.39393939393943" width="15.515151515151516" height="15.515151515151516" style="fill:#000;shape-rendering:crispEdges;"/>
  <rect x="62.06060606060606" y="418.90909090909093" width="15.515151515151516" height="15.515151515151516" style="fill:#000;shape-rendering:crispEdges;"/>
  <rect x="155.15151515151516" y="418.90909090909093" width="15.515151515151516" height="15.515151515151516" style="fill:#000;shape-rendering:crispEdges;"/>
  <rect x="186.1818181818182" y="418.90909090909093" width="15.515151515151516" height="15.515151515151516" style="fill:#000;shape-rendering:crispEdges;"/>
  <rect x="201.6969696969697" y="418.90909090909093" width="15.515151515151516" height="15.515151515151516" style="fill:#000;shape-rendering:crispEdges;"/>
  <rect x="232.72727272727275" y="418.90909090909093" width="15.515151515151516" height="15.515151515151516" style="fill:#000;shape-rendering:crispEdges;"/>
  <rect x="263.75757575757575" y="418.90909090909093" width="15.515151515151516" height="15.515151515151516" style="fill:#000;shape-rendering:crispEdges;"/>
  <rect x="279.27272727272725" y="418.90909090909093" width="15.515151515151516" height="15.515151515151516" style="fill:#000;shape-rendering:crispEdges;"/>
  <rect x="310.3030303030303" y="418.90909090909093" width="15.515151515151516" height="15.515151515151516" style="fill:#000;shape-rendering:crispEdges;"/>
  <rect x="325.8181818181818" y="418.90909090909093" width="15.515151515151516" height="15.515151515151516" style="fill:#000;shape-rendering:crispEdges;"/>
  <rect x="387.8787878787879" y="418.90909090909093" width="15.515151515151516" height="15.515151515151516" style="fill:#000;shape-rendering:crispEdges;"/>
  <rect x="403.39393939393943" y="418.90909090909093" width="15.515151515151516" height="15.515151515151516" style="fill:#000;shape-rendering:crispEdges;"/>
  <rect x="418.90909090909093" y="418.90909090909093" width="15.515151515151516" height="15.515151515151516" style="fill:#000;shape-rendering:crispEdges;"/>
  <rect x="62.06060606060606" y="434.42424242424244" width="15.515151515151516" height="15.515151515151516" style="fill:#000;shape-rendering:crispEdges;"/>
  <rect x="77.57575757575758" y="434.42424242424244" width="15.515151515151516" height="15.515151515151516" style="fill:#000;shape-rendering:crispEdges;"/>
  <rect x="93.0909090909091" y="434.42424242424244" width="15.515151515151516" height="15.515151515151516" style="fill:#000;shape-rendering:crispEdges;"/>
  <rect x="108.60606060606061" y="434.42424242424244" width="15.515151515151516" height="15.515151515151516" style="fill:#000;shape-rendering:crispEdges;"/>
  <rect x="124.12121212121212" y="434.42424242424244" width="15.515151515151516" height="15.515151515151516" style="fill:#000;shape-rendering:crispEdges;"/>
  <rect x="139.63636363636363" y="434.42424242424244" width="15.515151515151516" height="15.515151515151516" style="fill:#000;shape-rendering:crispEdges;"/>
  <rect x="155.15151515151516" y="434.42424242424244" width="15.515151515151516" height="15.515151515151516" style="fill:#000;shape-rendering:crispEdges;"/>
  <rect x="186.1818181818182" y="434.42424242424244" width="15.515151515151516" height="15.515151515151516" style="fill:#000;shape-rendering:crispEdges;"/>
  <rect x="217.21212121212122" y="434.42424242424244" width="15.515151515151516" height="15.515151515151516" style="fill:#000;shape-rendering:crispEdges;"/>
  <rect x="232.72727272727275" y="434.42424242424244" width="15.515151515151516" height="15.515151515151516" style="fill:#000;shape-rendering:crispEdges;"/>
  <rect x="248.24242424242425" y="434.42424242424244" width="15.515151515151516" height="15.515151515151516" style="fill:#000;shape-rendering:crispEdges;"/>
  <rect x="279.27272727272725" y="434.42424242424244" width="15.515151515151516" height="15.515151515151516" style="fill:#000;shape-rendering:crispEdges;"/>
  <rect x="294.7878787878788" y="434.42424242424244" width="15.515151515151516" height="15.515151515151516" style="fill:#000;shape-rendering:crispEdges;"/>
  <rect x="341.3333333333333" y="434.42424242424244" width="15.515151515151516" height="15.515151515151516" style="fill:#000;shape-rendering:crispEdges;"/>
  <rect x="372.3636363636364" y="434.42424242424244" width="15.515151515151516" height="15.515151515151516" style="fill:#000;shape-rendering:crispEdges;"/>
  <rect x="387.8787878787879" y="434.42424242424244" width="15.515151515151516" height="15.515151515151516" style="fill:#000;shape-rendering:crispEdges;"/>
  <rect x="403.39393939393943" y="434.42424242424244" width="15.515151515151516" height="15.515151515151516" style="fill:#000;shape-rendering:crispEdges;"/>
  <rect x="418.90909090909093" y="434.42424242424244" width="15.515151515151516" height="15.515151515151516" style="fill:#000;shape-rendering:crispEdges;"/>
  <rect x="434.42424242424244" y="434.42424242424244" width="15.515151515151516" height="15.515151515151516" style="fill:#000;shape-rendering:crispEdges;"/>
</svg>